<?xml version="1.0" standalone="no"?>
<!DOCTYPE svg PUBLIC "-//W3C//DTD SVG 20010904//EN"
 "http://www.w3.org/TR/2001/REC-SVG-20010904/DTD/svg10.dtd">
<svg version="1.0" xmlns="http://www.w3.org/2000/svg"
 width="49.000000pt" height="49.000000pt" viewBox="0 0 49.000000 49.000000"
 preserveAspectRatio="xMidYMid meet">
<metadata>
Created by potrace 1.16, written by Peter Selinger 2001-2019
</metadata>
<g transform="translate(0.000000,49.000000) scale(0.100000,-0.100000)"
fill="#000000" stroke="none">
<path d="M41 423 c-6 -21 -11 -49 -11 -63 -1 -14 -7 -36 -15 -50 -8 -14 -14
-52 -15 -89 0 -79 25 -129 84 -162 37 -22 53 -24 167 -24 119 0 127 1 166 27
22 14 47 42 56 61 21 44 22 152 2 187 -8 14 -14 36 -15 50 0 38 -20 100 -31
100 -6 0 -35 -12 -66 -27 -74 -35 -170 -34 -243 3 -26 13 -53 24 -58 24 -6 0
-16 -17 -21 -37z m360 -202 c27 -33 24 -84 -5 -118 -24 -28 -25 -28 -151 -28
-126 0 -127 0 -151 28 -37 44 -29 119 16 135 10 4 76 7 146 7 120 -1 127 -2
145 -24z"/>
<path d="M135 195 c-3 -8 -7 -22 -9 -30 -3 -7 3 -24 13 -37 15 -18 21 -20 34
-10 20 17 26 43 16 70 -10 25 -47 30 -54 7z"/>
<path d="M307 203 c-12 -11 -8 -68 5 -81 17 -17 26 -15 43 12 12 18 13 30 6
50 -10 24 -39 35 -54 19z"/>
</g>
</svg>
