<?xml version="1.0" standalone="no"?>
<!DOCTYPE svg PUBLIC "-//W3C//DTD SVG 20010904//EN"
 "http://www.w3.org/TR/2001/REC-SVG-20010904/DTD/svg10.dtd">
<svg version="1.0" xmlns="http://www.w3.org/2000/svg"
 width="49.000000pt" height="49.000000pt" viewBox="0 0 49.000000 49.000000"
 preserveAspectRatio="xMidYMid meet">
<metadata>
Created by potrace 1.10, written by Peter Selinger 2001-2011
</metadata>
<g transform="translate(0.000000,49.000000) scale(0.100000,-0.100000)"
fill="#000000" stroke="none">
<path d="M47 383 c-57 -84 -54 -211 7 -288 20 -25 26 -28 40 -16 14 12 13 17
-14 47 -16 19 -32 47 -36 62 -3 15 -7 32 -9 39 -7 23 22 114 45 138 13 14 20
31 17 39 -10 25 -22 19 -50 -21z"/>
<path d="M392 408 c-8 -8 -4 -19 18 -44 62 -71 59 -184 -6 -248 -16 -17 -13
-46 6 -46 18 0 60 75 70 128 12 67 0 131 -35 182 -30 43 -35 46 -53 28z"/>
<path d="M119 338 c-34 -47 -34 -139 0 -186 21 -30 25 -32 39 -19 13 14 13 17
-2 33 -42 41 -43 108 -3 152 19 20 19 24 5 38 -14 14 -18 13 -39 -18z"/>
<path d="M330 355 c-11 -13 -9 -19 7 -38 40 -44 41 -104 2 -146 -17 -18 -18
-25 -9 -37 10 -12 16 -12 28 -2 41 34 54 125 26 184 -22 46 -38 58 -54 39z"/>
<path d="M192 298 c-18 -18 -15 -93 4 -109 19 -16 79 -15 99 1 18 15 20 91 3
108 -7 7 -30 12 -53 12 -23 0 -46 -5 -53 -12z m82 -41 c13 -21 -15 -53 -38
-44 -26 10 -31 38 -11 54 22 16 35 13 49 -10z"/>
</g>
</svg>
