<?xml version="1.0" standalone="no"?>
<!DOCTYPE svg PUBLIC "-//W3C//DTD SVG 20010904//EN"
 "http://www.w3.org/TR/2001/REC-SVG-20010904/DTD/svg10.dtd">
<svg version="1.0" xmlns="http://www.w3.org/2000/svg"
 width="49.000000pt" height="49.000000pt" viewBox="0 0 49.000000 49.000000"
 preserveAspectRatio="xMidYMid meet">
<metadata>
Created by potrace 1.10, written by Peter Selinger 2001-2011
</metadata>
<g transform="translate(0.000000,49.000000) scale(0.100000,-0.100000)"
fill="#000000" stroke="none">
<path d="M24 475 c-11 -8 -14 -60 -15 -230 0 -199 1 -220 17 -232 21 -16 34
-17 34 -3 0 14 353 13 367 -1 11 -11 53 4 53 19 5 166 0 436 -7 443 -13 13
-432 17 -449 4z m416 -230 l0 -195 -195 0 -195 0 0 195 0 195 195 0 195 0 0
-195z"/>
<path d="M100 245 l0 -145 145 0 145 0 0 145 0 145 -75 0 c-84 0 -95 -9 -95
-74 0 -19 -5 -38 -10 -41 -14 -9 -13 -48 2 -63 15 -15 51 -15 66 0 15 15 16
54 2 63 -5 3 -10 19 -10 36 0 27 3 29 38 29 l37 0 -2 -96 -1 -96 -96 -1 -96
-2 0 98 c0 97 0 97 25 97 20 0 25 5 25 25 0 23 -3 25 -50 25 l-50 0 0 -145z"/>
</g>
</svg>
