<svg id="Capa_1" data-name="Capa 1" xmlns="http://www.w3.org/2000/svg" viewBox="0 0 50 29.75"><defs><style>.cls-1{fill:#00875f;}</style></defs><path class="cls-1" d="M46.63,33.08a2,2,0,1,0,0-1.41H41.47a9.25,9.25,0,0,0,.63-3.09l3.78-1a2,2,0,1,0-.37-1.36l-3.5.95a9.6,9.6,0,0,0-1.72-4.22,22.87,22.87,0,0,0,.92-11,1.58,1.58,0,0,0-2-1.28c-3.19.79-6,3.09-8.19,6.4a22.83,22.83,0,0,0-11.22,0c-2.14-3.29-5-5.59-8.1-6.4a1.59,1.59,0,0,0-2,1.28,23.64,23.64,0,0,0-.28,3.6,22.57,22.57,0,0,0,1.21,7.35A9.6,9.6,0,0,0,9,27.14l-3.5-.95a2,2,0,1,0-.37,1.36l3.78,1a9.25,9.25,0,0,0,.63,3.09H4.37a2,2,0,1,0,0,1.41h5.86A11.51,11.51,0,0,0,12,35.33L5.12,37.2a2,2,0,1,0,.37,1.36l7.74-2.11A19.86,19.86,0,0,0,25.5,40.38a19.86,19.86,0,0,0,12.27-3.93l7.74,2.11a2,2,0,1,0,.37-1.36L39,35.33a11.51,11.51,0,0,0,1.74-2.25ZM48.5,31.6a.78.78,0,1,1-.78.78.78.78,0,0,1,.78-.78m-1-6a.78.78,0,1,1-.78.78.78.78,0,0,1,.78-.78m-44,1.55a.78.78,0,1,1,.78-.77.78.78,0,0,1-.78.77m-1,6a.78.78,0,1,1,.78-.77.78.78,0,0,1-.78.77m1,6a.78.78,0,1,1,.78-.77.78.78,0,0,1-.78.77m18.94-6.84a7.3,7.3,0,0,1-.94.07,7,7,0,0,1-7-7,7.3,7.3,0,0,1,.06-.94,7.3,7.3,0,0,1,.94-.06,7,7,0,0,1,7,7,7.26,7.26,0,0,1-.06.93m7.06.07a7.3,7.3,0,0,1-.94-.07,7.26,7.26,0,0,1-.06-.93,7,7,0,0,1,7-7,7.3,7.3,0,0,1,.94.06,7.3,7.3,0,0,1,.06.94,7,7,0,0,1-7,7m18,5.22a.78.78,0,1,1-.78.78.78.78,0,0,1,.78-.78" transform="translate(-0.5 -10.62)"/></svg>