<?xml version="1.0" standalone="no"?>
<!DOCTYPE svg PUBLIC "-//W3C//DTD SVG 20010904//EN"
 "http://www.w3.org/TR/2001/REC-SVG-20010904/DTD/svg10.dtd">
<svg version="1.0" xmlns="http://www.w3.org/2000/svg"
 width="49.000000pt" height="49.000000pt" viewBox="0 0 49.000000 49.000000"
 preserveAspectRatio="xMidYMid meet">
<metadata>
Created by potrace 1.10, written by Peter Selinger 2001-2011
</metadata>
<g transform="translate(0.000000,49.000000) scale(0.100000,-0.100000)"
fill="#000000" stroke="none">
<path d="M155 406 c-53 -17 -105 -44 -133 -69 l-22 -21 26 -27 27 -28 33 26
c94 71 224 71 320 -2 l31 -24 27 28 26 27 -22 20 c-82 73 -213 102 -313 70z"/>
<path d="M144 276 c-28 -13 -54 -28 -57 -33 -4 -6 7 -22 22 -37 l29 -28 31 23
c42 31 109 32 151 1 l32 -24 29 28 c15 15 26 31 22 37 -13 22 -110 57 -158 57
-32 0 -69 -9 -101 -24z"/>
<path d="M193 168 c-13 -6 -23 -14 -23 -17 0 -4 17 -24 38 -44 l38 -37 39 40
c29 29 36 43 28 51 -16 16 -94 21 -120 7z"/>
</g>
</svg>
